<svg width="24" height="24" viewBox="0 0 24 24" fill="none" xmlns="http://www.w3.org/2000/svg">
<path fill-rule="evenodd" clip-rule="evenodd" d="M14.9356 7.93329L12 0L9.67227 6.29061C9.79848 6.37539 9.91836 6.47357 10.0299 6.58514C10.9595 7.51466 10.9595 9.02172 10.0299 9.95124C9.1004 10.8808 7.59335 10.8808 6.66383 9.95124C6.56397 9.85138 6.47484 9.74486 6.39644 9.63311L0 12L7.93329 14.9356L14.9356 7.93329ZM17.6581 9.6533L9.65329 17.6581L12 24L14.356 17.6331C14.3081 17.5922 14.2614 17.5491 14.2161 17.5038C13.2866 16.5743 13.2866 15.0672 14.2161 14.1377C15.1456 13.2082 16.6527 13.2082 17.5822 14.1377C17.6393 14.1948 17.6929 14.2541 17.743 14.3153L24 12L17.6581 9.6533Z" fill="#E99563"/>
</svg>
